<?xml version="1.0" encoding="UTF-8"?>
<!DOCTYPE svg PUBLIC "-//W3C//DTD SVG 1.1//EN" "http://www.w3.org/Graphics/SVG/1.1/DTD/svg11.dtd">
<svg xmlns="http://www.w3.org/2000/svg" version="1.1" width="390px" height="450px" style="shape-rendering:geometricPrecision; text-rendering:geometricPrecision; image-rendering:optimizeQuality; fill-rule:evenodd; clip-rule:evenodd" xmlns:xlink="http://www.w3.org/1999/xlink">
<g><path style="opacity:0.858" fill="#5463ea" d="M 65.5,-0.5 C 82.5,-0.5 99.5,-0.5 116.5,-0.5C 133.125,1.28082 149.792,3.78082 166.5,7C 187.088,12.3137 207.755,17.3137 228.5,22C 271.787,30.2049 315.12,30.5382 358.5,23C 368.984,20.6294 379.318,17.7961 389.5,14.5C 389.5,159.5 389.5,304.5 389.5,449.5C 259.5,449.5 129.5,449.5 -0.5,449.5C -0.5,304.167 -0.5,158.833 -0.5,13.5C 21.0494,6.12485 43.0494,1.45819 65.5,-0.5 Z"/></g>
<g><path style="opacity:0.733" fill="#5463eb" d="M 182.5,56.5 C 183.222,56.9175 183.722,57.5842 184,58.5C 185.067,56.7174 186.567,56.2174 188.5,57C 187.346,57.9138 187.513,58.7471 189,59.5C 190.749,58.701 192.082,59.3676 193,61.5C 193.718,60.5494 194.551,60.3828 195.5,61C 196.985,63.4773 198.819,65.644 201,67.5C 202.762,67.0556 202.595,66.5556 200.5,66C 201.448,65.5172 202.448,65.3505 203.5,65.5C 203.77,71.6668 205.936,72.6668 210,68.5C 211.284,69.5719 211.617,70.9052 211,72.5C 211.906,70.388 213.406,69.5547 215.5,70C 214.833,70.3333 214.167,70.6667 213.5,71C 214.849,71.7724 215.682,72.9391 216,74.5C 216.149,71.7215 216.983,71.2215 218.5,73C 218.167,73.3333 217.833,73.6667 217.5,74C 218.943,75.0672 220.276,76.2338 221.5,77.5C 221.749,76.4179 221.915,75.0846 222,73.5C 222.815,75.6228 223.815,77.6228 225,79.5C 225.333,78.5 225.667,77.5 226,76.5C 227.715,78.7594 229.548,80.9261 231.5,83C 229.665,83.9277 229.332,85.0944 230.5,86.5C 229.443,90.1684 228.109,90.1684 226.5,86.5C 227.939,83.4429 227.106,82.4429 224,83.5C 223.374,81.0087 222.541,81.0087 221.5,83.5C 220.667,82.5 219.833,81.5 219,80.5C 218.333,83.1667 217.667,83.1667 217,80.5C 216.517,81.448 216.351,82.448 216.5,83.5C 215.448,83.6495 214.448,83.4828 213.5,83C 215.452,81.4956 216.618,79.6623 217,77.5C 215.853,78.4581 214.853,78.1247 214,76.5C 213.311,77.3567 212.478,78.0233 211.5,78.5C 209.648,74.2575 205.982,71.7575 200.5,71C 199.874,70.2496 199.374,69.4162 199,68.5C 197.274,69.5762 195.441,69.7429 193.5,69C 196.028,68.3311 196.028,67.4978 193.5,66.5C 192.252,67.0402 191.085,67.7069 190,68.5C 188.681,66.5125 186.848,65.3459 184.5,65C 185.167,64.6667 185.833,64.3333 186.5,64C 185.033,62.9025 184.199,61.4025 184,59.5C 183.781,60.938 183.281,62.2713 182.5,63.5C 181.088,62.1936 179.421,61.3603 177.5,61C 178.767,58.3879 180.434,56.8879 182.5,56.5 Z"/></g>
<g><path style="opacity:0.734" fill="#5463eb" d="M 292.5,107.5 C 293.234,108.878 293.901,110.378 294.5,112C 294.167,112.333 293.833,112.667 293.5,113C 295.32,113.979 296.487,115.479 297,117.5C 297.333,116.833 297.667,116.167 298,115.5C 298.667,117.5 299.333,119.5 300,121.5C 301.944,116.235 303.944,116.235 306,121.5C 307.666,120.66 307.833,121.16 306.5,123C 307.667,123.5 308.5,124.333 309,125.5C 311.574,122.741 313.74,123.074 315.5,126.5C 316.503,124.458 317.837,124.125 319.5,125.5C 321.431,127.804 323.764,129.638 326.5,131C 325.159,132.826 325.659,133.993 328,134.5C 328.945,134.095 329.612,133.428 330,132.5C 330.833,133.333 331.667,134.167 332.5,135C 331.549,135.718 331.383,136.551 332,137.5C 332.667,136.167 333.333,136.167 334,137.5C 335.32,135.417 336.654,135.751 338,138.5C 338.805,136.099 339.638,136.266 340.5,139C 341.449,139.617 342.282,139.451 343,138.5C 344.775,140.394 346.775,142.061 349,143.5C 349.333,142.167 349.667,140.833 350,139.5C 351.107,142.983 350.107,145.65 347,147.5C 344.914,147.081 343.414,145.914 342.5,144C 344.301,143.683 344.634,143.016 343.5,142C 341.315,142.188 339.315,142.354 337.5,142.5C 336.029,141.619 335.196,140.286 335,138.5C 334.333,139.833 333.667,139.833 333,138.5C 331.956,139.623 331.29,140.956 331,142.5C 330.215,140.714 329.049,139.214 327.5,138C 328.602,135.609 327.936,135.109 325.5,136.5C 324.749,135.624 324.249,134.624 324,133.5C 321.266,134.362 321.099,135.195 323.5,136C 322.552,136.483 321.552,136.649 320.5,136.5C 320.741,133.001 319.908,132.668 318,135.5C 316.601,134.773 315.101,134.273 313.5,134C 315.376,132.983 317.376,132.149 319.5,131.5C 319.167,131.167 318.833,130.833 318.5,130.5C 317.033,130.723 315.533,131.056 314,131.5C 311.323,129.489 308.989,127.156 307,124.5C 306.333,125.167 305.667,125.833 305,126.5C 303.519,120.615 301.519,120.281 299,125.5C 298.333,123.5 297.667,121.5 297,119.5C 296.149,122.612 294.983,122.946 293.5,120.5C 290.374,122.87 289.874,122.203 292,118.5C 292.718,119.451 293.551,119.617 294.5,119C 293.083,116.174 291.583,116.007 290,118.5C 289.552,116.591 290.385,115.424 292.5,115C 289.972,113.684 289.972,112.517 292.5,111.5C 291.637,110.274 291.637,108.94 292.5,107.5 Z"/></g>
</svg>
