<svg version="1.1" id="Layer_1" xmlns="http://www.w3.org/2000/svg" xmlns:xlink="http://www.w3.org/1999/xlink" x="0px" y="0px"
	 width="100%" viewBox="0 0 390 450" enable-background="new 0 0 390 450" xml:space="preserve">
<path fill="#5564EB" opacity="1.000000" stroke="none" 
	d="
M391.000000,15.999998 
	C391.000000,160.950058 391.000000,305.900116 391.000000,450.925110 
	C261.094757,450.925110 131.189438,450.925110 1.000000,450.925110 
	C1.000000,305.978119 1.000000,160.956039 1.387082,15.457428 
	C18.500002,8.897749 35.689396,4.825783 53.398155,2.924611 
	C54.323647,2.825252 55.135330,1.665878 56.000000,1.000000 
	C80.022011,1.000000 104.044029,1.000000 128.291855,1.385534 
	C129.528885,2.179764 130.508438,2.816041 131.556244,2.961858 
	C141.746719,4.380021 152.099930,5.023625 162.117371,7.212384 
	C186.845016,12.615255 211.302597,19.296574 236.100754,24.318306 
	C250.957001,27.326759 266.208405,29.005844 281.358276,29.765726 
	C296.213074,30.510807 311.201294,29.866886 326.061401,28.833176 
	C337.908203,28.009077 349.745331,26.164513 361.410156,23.873817 
	C371.403473,21.911371 381.146362,18.673689 391.000000,15.999998 
z"/>
<path fill="#000000" opacity="1.000000" stroke="none" 
	d="
M391.000000,15.527335 
	C381.146362,18.673689 371.403473,21.911371 361.410156,23.873817 
	C349.745331,26.164513 337.908203,28.009077 326.061401,28.833176 
	C311.201294,29.866886 296.213074,30.510807 281.358276,29.765726 
	C266.208405,29.005844 250.957001,27.326759 236.100754,24.318306 
	C211.302597,19.296574 186.845016,12.615255 162.117371,7.212384 
	C152.099930,5.023625 141.746719,4.380021 131.556244,2.961858 
	C130.508438,2.816041 129.528885,2.179764 128.758835,1.385534 
	C216.333344,1.000000 303.666687,1.000000 391.000000,1.000000 
	C391.000000,5.736384 391.000000,10.395529 391.000000,15.527335 
z"/>
<path fill="#000000" opacity="1.000000" stroke="none" 
	d="
M55.531342,1.000000 
	C55.135330,1.665878 54.323647,2.825252 53.398155,2.924611 
	C35.689396,4.825783 18.500002,8.897749 1.387082,14.990442 
	C1.000000,10.363126 1.000000,5.726253 1.000000,1.000000 
	C19.020809,1.000000 37.041744,1.000000 55.531342,1.000000 
z"/>
</svg>