<?xml version="1.0" standalone="no"?>
<!DOCTYPE svg PUBLIC "-//W3C//DTD SVG 20010904//EN"
 "http://www.w3.org/TR/2001/REC-SVG-20010904/DTD/svg10.dtd">
<svg version="1.0" xmlns="http://www.w3.org/2000/svg"
 width="390.000000pt" height="450.000000pt" viewBox="0 0 390.000000 450.000000"
 preserveAspectRatio="xMidYMid meet">

<g transform="translate(0.000000,450.000000) scale(0.100000,-0.100000)"
fill="#000000" stroke="none">
<path d="M6 3153 c-3 -3 -6 -13 -6 -21 0 -12 3 -12 15 -2 18 15 37 2 41 -27 3
-17 2 -17 -10 -1 -8 12 -16 14 -29 7 -19 -11 -23 -29 -6 -29 5 0 7 5 4 10 -3
6 -2 10 4 10 5 0 13 -5 16 -11 4 -5 12 -8 18 -6 7 2 18 -2 25 -10 8 -8 23 -11
38 -7 14 4 24 2 24 -5 0 -6 -5 -11 -11 -11 -5 0 -8 -4 -5 -9 4 -5 0 -12 -6
-14 -10 -4 -10 -6 0 -6 7 -1 10 -6 6 -13 -5 -7 -3 -8 5 -4 7 5 10 10 7 13 -5
5 18 33 27 33 2 0 4 -7 4 -15 0 -8 -5 -12 -11 -9 -6 3 -1 -4 12 -15 14 -12 20
-25 16 -32 -4 -8 -3 -9 5 -5 7 5 9 16 5 28 -4 13 -2 18 4 14 6 -3 13 -2 17 4
4 6 11 8 16 4 6 -4 4 -13 -6 -24 -9 -10 -18 -27 -20 -37 -2 -10 -4 -20 -4 -22
-1 -2 -10 4 -21 14 -11 10 -20 14 -20 9 0 -5 -5 -1 -11 9 -8 13 -18 17 -35 13
-14 -4 -24 -2 -24 4 0 6 5 8 12 4 7 -4 8 -3 4 4 -4 6 -12 9 -19 6 -7 -2 -23 5
-35 17 -55 50 -52 135 -52 -1506 l0 -1515 1950 0 1950 0 0 493 c0 270 -4 497
-8 503 -4 6 -18 17 -31 24 -18 9 -25 9 -31 0 -5 -8 -10 -3 -14 14 -4 17 -11
23 -21 20 -13 -6 -20 6 -16 29 0 4 -4 7 -9 7 -6 0 -10 -6 -10 -12 0 -10 -2
-10 -8 -2 -9 15 -43 21 -62 11 -8 -5 -2 3 14 16 27 24 28 24 5 21 -13 -1 -34
-5 -46 -8 -24 -5 -32 9 -10 17 6 3 2 6 -10 7 -38 4 -41 5 -50 14 -5 5 -3 6 5
2 6 -4 12 -3 12 2 0 6 -7 12 -15 16 -8 3 -15 0 -15 -6 0 -9 -3 -9 -12 0 -9 9
-5 17 17 36 16 14 32 23 36 20 4 -2 9 0 11 5 1 5 10 2 18 -7 13 -14 12 -15 -4
-9 -13 5 -17 3 -13 -7 4 -11 1 -13 -10 -9 -11 4 -14 2 -9 -5 12 -20 44 -14 51
9 5 16 2 25 -11 33 -30 17 -54 17 -54 1 0 -17 -16 -20 -25 -5 -4 6 -10 8 -15
5 -4 -3 -10 4 -13 14 -6 23 15 34 34 18 11 -10 11 -9 0 5 -7 9 -18 15 -26 12
-7 -3 -16 0 -20 6 -5 8 -12 6 -25 -5 -12 -11 -20 -13 -25 -5 -3 5 -11 8 -16 5
-5 -4 -9 1 -9 10 0 9 5 13 10 10 16 -10 11 4 -9 26 -19 21 -19 21 -18 -19 1
-22 7 -39 12 -39 18 3 11 -28 -7 -31 -10 -2 -18 1 -18 7 0 6 -6 8 -14 5 -7 -3
-16 3 -20 12 -8 22 2 33 14 14 6 -10 10 -11 10 -3 0 7 -9 17 -19 23 -16 8 -25
5 -47 -15 -15 -14 -32 -25 -38 -25 -6 0 -3 5 7 11 9 5 17 15 17 20 0 6 -4 7
-10 4 -5 -3 -18 -1 -29 4 -14 8 -21 7 -25 -2 -4 -6 -4 -1 -2 11 4 20 1 23 -15
19 -15 -4 -19 -2 -15 9 3 9 -1 14 -12 14 -10 0 -24 9 -32 19 -13 19 -36 19
-25 0 4 -5 2 -9 -3 -9 -5 0 -12 9 -15 20 -3 13 -11 18 -20 14 -12 -4 -14 0
-10 18 3 17 2 19 -5 9 -8 -11 -10 -11 -15 0 -5 14 -11 -15 -8 -35 1 -5 -5 -4
-13 4 -18 14 -22 25 -6 15 6 -3 10 1 10 9 0 17 -32 38 -52 33 -7 -2 -10 -2 -5
0 11 7 -2 23 -19 23 -23 0 -45 25 -33 37 7 7 5 12 -6 17 -9 3 -14 2 -10 -3 3
-5 0 -11 -6 -13 -8 -3 -6 -10 5 -21 20 -19 14 -22 -14 -7 -12 6 -17 16 -13 26
3 9 1 14 -7 12 -7 -2 -15 3 -17 10 -3 6 0 12 7 12 6 0 8 5 5 10 -10 16 -36
-16 -29 -34 3 -9 1 -16 -6 -16 -6 0 -8 5 -5 10 3 6 1 10 -4 10 -6 0 -11 -5
-11 -12 0 -6 -3 -8 -6 -5 -4 4 -3 12 2 19 6 7 11 27 12 43 2 27 1 27 -7 9 -5
-12 -15 -25 -22 -30 -7 -4 -10 -3 -5 4 3 6 2 13 -4 17 -6 3 -11 -4 -11 -17 -1
-19 -3 -18 -9 7 -4 17 -8 24 -9 18 -2 -20 -46 5 -62 34 -14 27 -47 48 -57 38
-8 -7 19 -26 29 -19 4 2 9 -3 12 -10 3 -8 1 -17 -6 -20 -9 -3 -9 -5 1 -5 6 -1
12 -6 12 -12 0 -8 -5 -8 -15 1 -8 7 -12 16 -9 21 3 5 -7 14 -21 19 -14 5 -23
14 -20 20 3 5 2 10 -4 10 -5 0 -13 -4 -16 -10 -3 -5 -11 -10 -17 -10 -6 0 -3
10 8 22 10 12 13 18 6 14 -8 -5 -19 -1 -27 10 -13 18 -14 18 -15 2 0 -31 -17
-19 -17 12 0 17 4 30 9 30 5 0 6 -6 2 -12 -5 -9 -2 -9 9 1 16 12 22 8 18 -12
-1 -5 3 -6 8 -3 5 4 12 0 14 -6 4 -10 6 -10 6 0 1 6 6 12 12 12 5 0 7 -5 3
-12 -5 -7 -3 -8 6 -3 10 6 12 4 6 -11 -5 -14 -4 -16 4 -8 12 12 4 44 -11 44
-5 0 -9 7 -9 15 0 8 5 15 11 15 5 0 7 4 4 10 -10 15 -55 7 -60 -11 -4 -11 -13
-15 -25 -12 -19 5 -26 -9 -21 -39 0 -5 -4 -8 -10 -8 -7 0 -9 9 -6 21 3 12 3
18 0 15 -4 -3 -12 -1 -18 4 -9 7 -17 5 -26 -7 -12 -15 -12 -16 1 -8 8 4 12 4
7 0 -11 -12 -37 -15 -38 -4 -1 5 -2 13 -3 18 -3 22 -57 70 -71 65 -13 -5 -13
-9 -3 -23 12 -15 11 -15 -7 0 -11 9 -27 15 -36 14 -21 -4 -17 41 6 64 14 14
17 14 26 1 9 -13 10 -13 6 0 -2 8 3 21 12 28 14 12 13 13 -10 8 -23 -5 -26 -3
-23 19 1 14 -2 25 -8 25 -6 0 -8 -6 -5 -14 4 -10 0 -12 -15 -8 -20 5 -20 5 -2
-23 14 -21 15 -30 6 -33 -6 -2 -12 -10 -12 -18 0 -8 -5 -14 -11 -14 -16 0 -39
26 -31 35 4 5 2 5 -5 2 -6 -4 -14 -1 -17 5 -3 7 -3 2 0 -10 l6 -24 -21 21
c-20 20 -19 51 1 51 6 0 8 7 4 15 -3 8 -1 15 4 15 16 0 12 15 -11 39 -15 16
-24 19 -29 11 -4 -7 -12 0 -20 19 -11 27 -14 29 -27 15 -9 -8 -18 -12 -22 -8
-3 4 0 9 6 11 7 3 13 9 13 14 0 6 -4 8 -9 4 -5 -3 -12 -1 -16 4 -3 6 -13 7
-22 4 -12 -5 -14 -3 -8 8 6 11 5 11 -5 2 -7 -6 -19 -9 -26 -6 -9 3 -14 -2 -14
-17 0 -14 -4 -19 -12 -14 -9 5 -9 2 1 -9 14 -17 26 -24 17 -9 -9 14 11 33 37
36 20 2 26 -2 30 -21 2 -13 0 -26 -4 -29 -16 -9 -9 -24 10 -24 19 0 41 -19 24
-21 -4 0 -18 -2 -30 -5 -13 -2 -23 1 -23 7 0 5 -5 7 -10 4 -6 -4 -8 -12 -4
-18 3 -7 -2 -3 -10 7 -9 11 -16 23 -16 28 0 4 -5 8 -11 8 -5 0 -7 -4 -4 -10 3
-5 1 -10 -4 -10 -6 0 -11 8 -12 18 0 13 -2 12 -9 -5 -11 -28 -20 -30 -13 -4 3
13 -2 20 -19 25 -22 6 -22 7 -4 21 10 8 23 12 29 8 6 -3 7 -1 3 5 -5 9 -13 9
-27 1 -11 -5 -30 -7 -42 -3 -12 5 -25 7 -29 6 -5 -1 -8 2 -8 8 0 5 5 10 12 10
6 0 8 3 5 6 -4 4 -13 2 -20 -4 -10 -9 -17 -6 -27 8 -14 20 -37 29 -26 11 4 -5
-2 -8 -11 -6 -10 1 -17 8 -15 14 1 6 -5 11 -13 11 -8 0 -15 6 -15 14 0 9 -7
12 -22 9 -17 -3 -19 -2 -9 5 8 6 9 12 3 16 -6 3 -13 -3 -17 -14 -3 -11 -11
-20 -17 -20 -6 0 -6 6 2 15 10 12 9 15 -4 15 -10 0 -15 4 -12 9 4 5 -4 7 -16
4 -17 -3 -19 -2 -10 5 11 7 9 10 -7 15 -11 2 -23 0 -26 -7 -3 -6 -3 -1 -1 12
2 12 0 22 -5 22 -5 0 -9 -8 -9 -17 -1 -17 -1 -17 -11 0 -9 15 -13 16 -27 5
-15 -11 -15 -11 -4 3 10 13 9 19 -5 30 -14 12 -16 12 -8 0 6 -10 4 -12 -5 -6
-7 4 -16 2 -22 -6 -8 -11 -9 -10 -4 3 3 10 1 20 -4 23 -6 4 -10 2 -10 -3 0 -5
-7 -9 -15 -9 -11 0 -12 4 -4 13 22 27 2 43 -61 47 -21 2 -25 7 -23 32 2 25 1
27 -7 10 -5 -11 -9 -15 -9 -10 -1 6 -5 4 -9 -3 -11 -16 -42 -5 -42 16 0 13 3
12 15 -4 8 -10 14 -14 14 -9 1 6 -8 21 -19 35 -11 14 -18 18 -14 9 3 -10 1
-20 -5 -23 -5 -4 -13 3 -16 15 -6 17 -9 19 -17 8 -8 -11 -11 -11 -15 -1 -4 9
-8 10 -18 2 -10 -8 -15 -8 -21 1 -4 8 -3 9 4 5 7 -4 12 -1 12 9 0 9 -4 14 -9
11 -5 -3 -14 1 -21 9 -7 8 -19 15 -26 15 -8 0 -11 7 -7 18 5 14 3 13 -10 -3
-14 -17 -16 -18 -17 -3 0 9 -5 20 -12 24 -6 4 -8 3 -5 -3 4 -6 -3 -8 -18 -5
-14 2 -22 8 -19 13 3 5 10 6 16 3 7 -4 8 -2 4 4 -10 16 -36 15 -36 0 0 -9 -2
-10 -8 -2 -4 6 -17 14 -30 18 -12 4 -20 11 -17 16 3 5 -4 7 -15 5 -11 -2 -20
1 -20 6 0 6 -10 9 -21 7 -14 -2 -23 3 -24 13 -5 28 -41 59 -54 46 -8 -8 -11
-8 -11 1 0 7 6 15 14 18 8 3 12 12 9 20 -8 23 -33 -3 -33 -35 0 -19 -3 -22 -9
-12 -5 7 -13 11 -19 7 -6 -4 -8 2 -4 16 3 15 2 19 -7 14 -7 -4 -19 2 -30 15
-10 12 -26 23 -37 25 -35 4 -64 16 -64 26 0 6 6 8 14 5 10 -4 18 4 25 24 12
34 21 38 15 7 -2 -13 -2 -17 2 -10 3 6 10 12 15 12 6 0 8 -4 4 -10 -3 -5 3
-18 15 -30 11 -11 20 -15 20 -10 0 6 9 10 21 10 13 0 18 -4 13 -12 -4 -6 -3
-8 3 -5 6 4 13 -3 16 -14 4 -14 10 -18 18 -13 10 6 10 9 1 12 -7 2 -12 8 -12
14 0 7 5 6 14 -1 12 -10 17 -8 27 11 11 21 11 22 -5 9 -14 -12 -16 -12 -11 2
5 10 1 15 -12 14 -10 -1 -21 -6 -24 -10 -3 -5 -13 -1 -23 8 -9 9 -16 12 -16 6
0 -6 -7 -8 -15 -5 -13 5 -13 8 0 21 8 8 15 19 15 26 0 6 -6 3 -13 -8 -14 -18
-43 -13 -32 6 4 5 0 9 -9 9 -8 0 -16 5 -18 10 -2 6 -13 12 -26 13 -13 1 -21 6
-18 14 3 7 0 15 -6 19 -7 4 -8 3 -4 -4 11 -17 -9 -15 -24 3 -12 15 -60 21 -60
8 0 -3 8 -15 18 -26 9 -12 11 -17 3 -12 -9 5 -12 3 -9 -6 2 -7 15 -16 29 -20
21 -6 22 -7 6 -14 -15 -6 -16 -10 -5 -16 40 -26 38 22 -2 61 -28 27 -29 30
-10 30 18 0 25 -11 21 -33 -1 -5 3 -5 9 -2 13 8 57 -36 57 -58 0 -10 -7 -14
-22 -11 -16 3 -21 -1 -20 -19 0 -12 4 -29 9 -37 9 -13 8 -13 -7 -1 -11 8 -15
21 -12 32 6 19 1 22 -36 22 -11 0 -15 6 -12 21 4 17 3 18 -6 6 -9 -13 -11 -12
-11 5 0 12 -3 16 -8 9 -4 -6 -16 -14 -27 -17 -18 -6 -18 -6 -3 6 15 12 15 14
-3 26 -11 6 -30 9 -41 5 -14 -4 -18 -2 -14 5 4 6 2 11 -4 11 -6 0 -9 4 -6 9 4
5 -5 8 -19 6 -15 -1 -25 3 -25 10 0 7 -9 15 -20 18 -11 3 -20 1 -20 -4 0 -6
-6 -4 -14 3 -10 9 -11 15 -2 20 8 6 8 8 -1 8 -6 0 -15 -4 -18 -10 -3 -5 -12
-10 -18 -10 -8 0 -7 4 2 9 11 7 4 11 -25 17 -21 5 -42 7 -45 6 -4 -1 -5 7 -2
17 3 13 -2 20 -17 24 -15 4 -21 11 -17 21 3 8 2 18 -4 22 -6 4 -6 11 2 20 7 8
7 14 1 14 -14 0 -22 -26 -12 -36 5 -5 2 -18 -6 -28 -8 -11 -14 -14 -14 -8 0 7
-5 12 -11 12 -5 0 -7 -5 -3 -12 4 -7 3 -8 -5 -4 -6 4 -9 16 -6 26 3 10 0 22
-6 26 -8 5 -9 3 -4 -6 5 -8 3 -11 -6 -8 -8 3 -13 13 -13 22 2 13 -1 14 -12 5
-8 -6 -12 -15 -9 -19 3 -5 1 -11 -4 -15 -6 -3 -8 3 -6 15 2 11 -1 20 -7 20 -7
0 -7 4 1 13 6 8 8 16 6 19 -3 3 3 8 14 11 12 3 22 -1 25 -10 4 -8 11 -11 18
-7 9 5 9 3 -1 -9 -8 -10 -9 -17 -3 -17 6 0 14 5 18 11 4 8 9 7 15 -2 5 -8 9
-9 9 -4 0 21 -19 38 -34 32 -10 -4 -16 -1 -16 9 0 11 -6 13 -21 9 -15 -5 -19
-4 -15 4 4 6 4 11 -1 10 -20 -3 -23 2 -9 17 18 17 22 39 6 29 -6 -4 -18 -1
-26 6 -12 10 -15 10 -12 0 2 -8 -5 -15 -14 -16 -11 -2 -18 3 -18 11 0 9 3 13
8 11 4 -3 13 2 20 9 12 13 10 14 -12 8 -16 -4 -26 -2 -26 5 0 6 -7 8 -17 4
-13 -5 -15 -3 -9 13 5 15 4 16 -5 7 -15 -15 -39 -6 -32 13 4 10 0 12 -11 8
-10 -4 -15 -13 -11 -22 5 -12 3 -13 -10 -2 -13 10 -13 15 -3 21 7 4 10 9 8 11
-33 21 -68 36 -74 31z m54 -153 c0 -5 -5 -10 -11 -10 -5 0 -7 5 -4 10 3 6 8
10 11 10 2 0 4 -4 4 -10z m80 -30 c0 -5 -10 -10 -22 -9 -22 0 -22 1 -3 9 11 5
21 9 23 9 1 1 2 -3 2 -9z m95 0 c3 -5 1 -10 -4 -10 -6 0 -11 5 -11 10 0 6 2
10 4 10 3 0 8 -4 11 -10z m315 -232 c0 -16 -3 -19 -11 -11 -6 6 -8 16 -5 22
11 17 16 13 16 -11z m348 -167 c3 -8 -1 -12 -9 -9 -7 2 -15 10 -17 17 -3 8 1
12 9 9 7 -2 15 -10 17 -17z m112 -51 c0 -5 -5 -10 -11 -10 -5 0 -7 5 -4 10 3
6 8 10 11 10 2 0 4 -4 4 -10z m135 -90 c3 -5 1 -10 -4 -10 -6 0 -11 5 -11 10
0 6 2 10 4 10 3 0 8 -4 11 -10z m65 -50 c0 -5 -2 -10 -4 -10 -3 0 -8 5 -11 10
-3 6 -1 10 4 10 6 0 11 -4 11 -10z m331 -148 c-7 -2 -18 1 -23 6 -8 8 -4 9 13
5 13 -4 18 -8 10 -11z m15 -20 c-17 -16 -18 -16 -5 5 7 12 15 20 18 17 3 -2
-3 -12 -13 -22z m629 -241 c-3 -6 -11 -11 -17 -11 -6 0 -6 6 2 15 14 17 26 13
15 -4z m68 -24 c4 3 7 0 7 -9 0 -22 -11 -29 -26 -17 -8 7 -14 6 -20 -2 -4 -8
-3 -9 4 -5 7 4 12 2 12 -4 0 -7 8 -9 21 -5 15 5 19 4 15 -4 -4 -6 -14 -11 -22
-11 -9 0 -12 -5 -8 -11 4 -8 0 -8 -15 0 -12 7 -27 9 -33 5 -7 -5 -8 -3 -3 6 6
10 3 12 -14 7 -15 -3 -21 -1 -18 6 3 7 10 11 17 9 20 -5 38 17 32 40 -5 20 -4
20 20 4 13 -9 28 -13 31 -9z m201 -210 c7 -6 6 -7 -4 -4 -8 2 -16 12 -17 23
-2 13 -1 15 4 4 3 -8 11 -19 17 -23z m206 -19 c0 -4 -4 -8 -9 -8 -6 0 -12 4
-15 8 -3 5 1 9 9 9 8 0 15 -4 15 -9z m340 -268 c0 -5 -2 -10 -4 -10 -3 0 -8 5
-11 10 -3 6 -1 10 4 10 6 0 11 -4 11 -10z m67 -26 c-3 -3 -12 -4 -19 -1 -8 3
-5 6 6 6 11 1 17 -2 13 -5z m318 -144 c-1 -11 -4 -22 -7 -25 -4 -5 -4 34 1 43
4 8 7 -1 6 -18z m118 -23 c-4 -6 3 -8 15 -5 17 5 22 2 22 -13 0 -11 6 -19 13
-17 22 5 19 -16 -4 -32 -15 -9 -20 -10 -16 -3 6 9 3 11 -9 6 -13 -5 -15 -3 -9
7 5 8 4 11 -3 7 -5 -4 -21 -3 -34 2 -12 6 -17 10 -10 10 7 1 10 6 7 11 -3 6
-2 10 4 10 6 0 8 6 5 13 -3 8 2 14 10 14 8 0 12 -5 9 -10z m17 -87 c0 -5 -5
-10 -11 -10 -5 0 -7 5 -4 10 3 6 8 10 11 10 2 0 4 -4 4 -10z m220 -100 c0 -5
-5 -10 -11 -10 -5 0 -7 5 -4 10 3 6 8 10 11 10 2 0 4 -4 4 -10z m7 -26 c-3 -3
-12 -4 -19 -1 -8 3 -5 6 6 6 11 1 17 -2 13 -5z"/>
<path d="M8 3063 c7 -3 16 -2 19 1 4 3 -2 6 -13 5 -11 0 -14 -3 -6 -6z"/>
<path d="M64 3046 c1 -8 5 -18 8 -22 4 -3 5 1 4 10 -1 8 -5 18 -8 22 -4 3 -5
-1 -4 -10z"/>
<path d="M275 3020 c-3 -5 -1 -10 4 -10 6 0 11 5 11 10 0 6 -2 10 -4 10 -3 0
-8 -4 -11 -10z"/>
<path d="M290 2996 c0 -2 8 -10 18 -17 15 -13 16 -12 3 4 -13 16 -21 21 -21
13z"/>
<path d="M350 2970 c11 -7 11 -10 2 -10 -7 0 -10 -5 -6 -11 4 -8 9 -7 15 2 9
15 3 29 -14 29 -7 0 -6 -4 3 -10z"/>
<path d="M376 2937 c3 -10 9 -15 12 -12 3 3 0 11 -7 18 -10 9 -11 8 -5 -6z"/>
<path d="M410 2935 c-8 -9 -9 -25 -5 -42 5 -16 8 -36 9 -45 1 -20 19 -25 25
-7 2 7 -1 9 -8 5 -6 -4 -11 -2 -11 3 0 11 19 15 50 12 13 -2 13 -1 0 8 -8 6
-22 8 -31 6 -13 -4 -15 0 -11 20 2 14 9 25 15 25 6 0 7 3 4 6 -4 4 -14 1 -23
-7 -16 -13 -16 -12 -5 9 13 25 9 29 -9 7z"/>
<path d="M460 2903 c0 -7 9 -17 21 -23 21 -12 21 -34 1 -36 -7 -1 -18 -2 -24
-3 -9 -1 -9 -4 2 -11 8 -5 19 -6 25 -2 27 19 65 0 60 -28 -2 -12 0 -18 6 -15
5 4 7 11 4 16 -4 5 1 9 10 9 11 0 15 -5 11 -16 -3 -8 -2 -12 4 -9 6 3 10 13
10 21 0 8 5 14 10 14 6 0 10 5 10 12 0 9 -3 9 -12 0 -19 -19 -26 -14 -23 13 1
14 -1 25 -4 26 -3 0 -14 2 -23 4 -10 2 -18 -3 -18 -11 0 -8 -5 -14 -10 -14 -6
0 -10 8 -8 18 2 10 -2 16 -11 14 -11 -2 -12 0 -3 11 9 11 8 14 -3 14 -8 0 -15
-5 -15 -11 0 -6 -5 -4 -10 4 -6 9 -10 10 -10 3z m103 -58 c4 -8 2 -17 -3 -20
-6 -4 -10 3 -10 14 0 25 6 27 13 6z"/>
<path d="M643 2838 c4 -10 2 -18 -3 -18 -6 0 -10 5 -10 12 0 6 -6 3 -14 -8
-21 -28 -2 -40 25 -15 19 17 21 23 9 34 -10 10 -12 9 -7 -5z"/>
<path d="M660 2800 c0 -5 5 -10 10 -10 6 0 10 5 10 10 0 6 -4 10 -10 10 -5 0
-10 -4 -10 -10z"/>
<path d="M690 2779 c0 -3 -11 -4 -24 -2 -13 3 -26 1 -29 -4 -8 -12 52 -9 83 5
l25 11 -27 -2 c-16 -1 -28 -4 -28 -8z"/>
<path d="M790 2680 c0 -6 7 -10 15 -10 8 0 15 2 15 4 0 2 -7 6 -15 10 -8 3
-15 1 -15 -4z"/>
<path d="M1022 2615 c-11 -12 -17 -29 -9 -23 1 1 12 -4 23 -10 17 -9 24 -9 33
2 9 11 6 12 -14 8 -14 -2 -25 0 -25 7 0 6 8 8 18 4 15 -6 15 -5 3 10 -16 20
-13 20 -29 2z"/>
<path d="M1076 2574 c-9 -8 -20 -12 -26 -9 -14 9 -13 -3 2 -19 11 -11 15 -11
25 3 12 14 12 14 6 -3 -4 -13 -3 -17 5 -12 7 4 12 2 12 -3 0 -6 7 -11 16 -11
9 0 12 5 8 12 -4 7 -3 8 4 4 8 -5 12 1 12 16 0 18 -2 20 -10 8 -6 -10 -10 -11
-10 -2 0 6 -8 12 -17 12 -15 0 -16 2 -3 10 9 6 10 10 3 10 -6 0 -19 -7 -27
-16z"/>
<path d="M1144 2525 c-15 -28 -16 -37 -6 -47 11 -11 12 -9 7 7 -6 18 -5 18 7
4 7 -9 20 -18 28 -22 9 -3 10 -6 3 -6 -7 -1 -13 -6 -13 -13 0 -25 28 17 33 49
3 17 8 38 12 45 3 7 -3 2 -14 -11 -12 -13 -22 -18 -22 -12 -3 25 -4 30 -10 35
-3 3 -14 -10 -25 -29z m42 -42 c-7 -7 -26 7 -26 19 0 6 6 6 15 -2 9 -7 13 -15
11 -17z"/>
<path d="M1220 2520 c0 -5 5 -10 11 -10 5 0 7 5 4 10 -3 6 -8 10 -11 10 -2 0
-4 -4 -4 -10z"/>
<path d="M1100 2489 c0 -5 5 -7 10 -4 6 3 10 8 10 11 0 2 -4 4 -10 4 -5 0 -10
-5 -10 -11z"/>
<path d="M1210 2470 c0 -18 3 -21 9 -11 7 10 12 9 23 -8 14 -19 16 -20 22 -5
5 13 9 14 22 4 12 -11 12 -15 2 -21 -11 -7 -11 -9 0 -9 23 0 42 -26 29 -39 -8
-8 -8 -11 1 -11 11 0 16 13 13 35 -1 6 6 1 14 -9 15 -20 15 -20 15 0 0 28 -10
36 -27 23 -9 -9 -13 -8 -13 0 0 20 5 26 18 23 23 -5 12 6 -32 32 -57 33 -96
32 -96 -4z m99 -10 c7 0 9 -5 6 -11 -5 -7 -13 -5 -24 5 -13 12 -20 13 -29 4
-9 -9 -12 -9 -12 0 0 7 5 12 11 12 5 0 7 6 3 13 -4 6 2 4 13 -5 11 -10 25 -18
32 -18z"/>
<path d="M1361 2449 c-1 -23 25 -44 35 -28 4 8 3 9 -5 5 -7 -4 -15 2 -20 16
-7 15 -10 17 -10 7z"/>
<path d="M1395 2400 c-3 -5 -1 -10 4 -10 6 0 11 5 11 10 0 6 -2 10 -4 10 -3 0
-8 -4 -11 -10z"/>
<path d="M1427 2393 c-10 -9 -9 -25 1 -19 4 2 14 1 22 -5 12 -7 9 -9 -10 -9
-22 -1 -23 -2 -7 -11 13 -8 22 -7 33 2 11 9 18 9 26 1 7 -7 9 -13 5 -13 -4 -1
-11 -3 -17 -4 -5 -1 -18 -3 -27 -4 -14 -1 -15 -3 -4 -10 7 -5 22 -6 32 -4 10
3 19 0 19 -6 0 -7 10 -10 25 -7 15 3 23 1 20 -5 -4 -5 -10 -7 -15 -4 -5 3 -11
1 -15 -5 -3 -5 0 -11 7 -11 27 -3 53 -7 63 -9 6 -2 20 1 33 6 l23 10 -31 27
c-29 26 -37 23 -31 -15 0 -5 -3 -8 -9 -8 -5 0 -10 7 -10 15 0 8 -5 15 -11 15
-5 0 -8 4 -5 9 3 5 -1 11 -8 14 -8 3 -17 1 -20 -6 -3 -7 -3 -1 0 12 5 19 3 23
-9 18 -9 -3 -18 1 -21 9 -3 9 -10 13 -15 9 -5 -3 -12 -1 -16 5 -7 12 -19 13
-28 3z m188 -93 c3 -6 -1 -7 -9 -4 -18 7 -21 14 -7 14 6 0 13 -4 16 -10z"/>
<path d="M1390 2369 c0 -5 5 -7 10 -4 6 3 10 8 10 11 0 2 -4 4 -10 4 -5 0 -10
-5 -10 -11z"/>
<path d="M1637 2276 c-18 -14 -24 -46 -8 -46 6 0 13 5 17 12 4 7 3 8 -4 4 -7
-4 -12 -2 -12 3 0 6 9 11 20 11 11 0 20 4 20 9 0 17 -15 20 -33 7z"/>
<path d="M1684 2255 c-4 -8 -3 -22 0 -32 6 -14 8 -14 19 -1 6 9 18 18 26 20 8
2 3 8 -13 16 -22 10 -28 9 -32 -3z"/>
<path d="M1750 2230 c0 -5 -6 -7 -14 -4 -8 3 -19 -3 -24 -13 -8 -15 -6 -18 13
-18 13 0 21 2 19 4 -2 2 3 13 13 23 9 11 11 18 5 18 -7 0 -12 -4 -12 -10z"/>
<path d="M1661 2214 c0 -11 3 -14 6 -6 3 7 2 16 -1 19 -3 4 -6 -2 -5 -13z"/>
<path d="M1790 2221 c0 -6 5 -11 10 -11 17 0 11 -37 -6 -44 -9 -4 -14 -9 -11
-12 3 -3 15 0 26 8 12 8 18 18 15 21 -4 4 -1 14 7 24 10 12 10 15 1 9 -7 -4
-19 -2 -27 4 -11 9 -15 9 -15 1z"/>
<path d="M1618 2213 c7 -3 16 -2 19 1 4 3 -2 6 -13 5 -11 0 -14 -3 -6 -6z"/>
<path d="M1767 2179 c-19 -22 -9 -25 18 -6 10 8 14 17 8 20 -5 3 -17 -3 -26
-14z"/>
<path d="M1842 2173 c-16 -28 -15 -53 1 -53 25 0 91 -37 76 -43 -10 -4 -10 -6
-1 -6 7 -1 17 11 23 27 10 27 11 27 27 7 20 -24 44 -26 49 -5 3 10 2 11 -4 3
-6 -8 -15 -6 -33 9 -21 16 -21 19 -5 13 16 -5 17 -4 8 6 -10 10 -16 9 -30 -3
-10 -8 -24 -13 -32 -10 -10 3 -11 0 -5 -9 6 -11 5 -12 -8 -2 -8 7 -18 10 -21
6 -4 -3 -7 -1 -7 6 0 7 7 11 15 8 8 -4 17 -2 20 3 4 6 -1 10 -10 10 -11 0 -15
5 -11 15 4 13 2 13 -14 5 -15 -8 -19 -6 -22 13 l-3 22 -13 -22z"/>
<path d="M1950 2085 c0 -9 -7 -18 -15 -21 -8 -4 -12 -11 -9 -16 4 -7 10 -5 15
4 5 10 19 13 38 10 17 -2 28 -8 25 -13 -9 -15 26 -10 42 6 18 17 34 20 34 5 0
-5 -4 -10 -10 -10 -5 0 -7 -7 -3 -16 8 -21 23 1 23 34 0 20 -3 21 -20 12 -11
-6 -26 -8 -32 -4 -6 4 -8 3 -4 -4 3 -6 2 -13 -4 -17 -5 -3 -10 -1 -10 4 0 6
-11 11 -25 11 -16 0 -25 6 -25 15 0 8 -4 15 -10 15 -5 0 -10 -7 -10 -15z"/>
<path d="M1877 2079 c7 -7 15 -10 18 -7 3 3 -2 9 -12 12 -14 6 -15 5 -6 -5z"/>
<path d="M2119 1992 c12 -22 31 -22 31 0 0 6 -3 8 -7 5 -3 -4 -13 -1 -21 6
-13 10 -14 9 -3 -11z"/>
<path d="M2312 1933 c-10 -4 -10 -8 -1 -19 15 -18 29 -18 29 0 0 18 -11 25
-28 19z"/>
<path d="M2290 1899 c0 -5 5 -7 12 -3 8 5 9 2 5 -9 -3 -9 -3 -16 1 -16 21 3
32 -2 26 -13 -5 -10 -3 -10 7 0 12 11 10 16 -11 32 -28 22 -40 25 -40 9z"/>
<path d="M2430 1854 c-7 -8 -9 -14 -6 -14 4 0 1 -10 -5 -22 -11 -21 -11 -22 4
-9 12 9 17 10 17 2 0 -9 5 -9 20 -1 27 15 26 33 -2 25 -21 -6 -22 -5 -5 8 15
12 15 16 3 20 -8 3 -20 -1 -26 -9z"/>
<path d="M2490 1831 c0 -19 26 -31 39 -18 11 10 11 8 3 -9 -9 -17 -8 -20 6
-19 18 1 22 6 22 29 0 10 -9 13 -32 10 -25 -4 -29 -2 -18 5 13 9 13 11 -2 11
-10 0 -18 -4 -18 -9z"/>
<path d="M2375 1799 c-9 -14 -2 -20 14 -10 8 6 9 11 3 15 -6 3 -14 1 -17 -5z"/>
<path d="M2469 1807 c-7 -17 -6 -48 3 -53 8 -5 9 -2 5 9 -8 20 18 24 27 5 3
-7 4 -2 3 11 -1 14 -9 25 -19 27 -10 1 -18 2 -19 1z"/>
<path d="M2591 1803 c-1 -6 4 -15 9 -18 6 -4 8 -10 5 -15 -3 -5 -1 -11 5 -15
6 -4 10 5 10 20 0 14 -4 24 -9 21 -5 -4 -12 0 -14 6 -4 9 -6 10 -6 1z"/>
<path d="M2560 1770 c-13 -9 -13 -11 0 -20 19 -13 40 -13 40 0 0 6 -8 10 -17
11 -15 0 -15 2 2 9 13 6 15 9 5 9 -8 0 -22 -4 -30 -9z"/>
<path d="M2700 1734 c0 -20 27 -37 36 -23 4 7 3 9 -4 5 -6 -3 -15 2 -21 11 -6
10 -11 13 -11 7z"/>
<path d="M2740 1689 c0 -5 6 -7 13 -3 7 5 6 0 -3 -11 -14 -17 -13 -18 3 -12
10 4 23 7 28 7 5 0 9 7 9 15 0 9 -9 15 -25 15 -14 0 -25 -5 -25 -11z"/>
<path d="M2714 1675 c3 -23 12 -26 13 -5 1 11 -2 20 -7 20 -4 0 -7 -7 -6 -15z"/>
<path d="M2815 1661 c6 -11 2 -13 -23 -8 -24 5 -30 3 -26 -7 3 -8 13 -13 22
-12 19 3 42 -15 35 -27 -2 -4 1 -6 7 -5 7 2 14 -5 15 -15 2 -11 7 -22 11 -25
4 -4 4 1 1 11 -4 9 -2 17 3 17 6 0 10 5 10 10 0 6 -6 10 -14 10 -12 0 -27 21
-30 42 -1 3 -5 10 -10 15 -5 5 -6 2 -1 -6z"/>
<path d="M2836 1651 c-9 -13 21 -34 36 -25 7 4 10 4 6 -1 -4 -4 -1 -20 7 -35
8 -15 11 -31 7 -35 -4 -5 -1 -5 6 -1 13 8 17 36 4 36 -5 0 -7 14 -6 30 2 33 1
34 -26 20 -16 -8 -18 -8 -14 5 6 16 -11 21 -20 6z"/>
<path d="M2918 1584 c5 -29 27 -32 29 -5 1 11 -6 21 -16 24 -14 3 -17 -1 -13
-19z"/>
<path d="M2968 1600 c17 -20 15 -31 -5 -23 -11 5 -14 3 -8 -6 4 -8 2 -17 -6
-22 -11 -6 -8 -9 8 -9 12 0 24 -4 27 -9 3 -4 17 -7 31 -6 14 2 27 -1 30 -5 3
-5 -6 -7 -20 -4 -14 2 -25 0 -25 -6 0 -9 20 -14 47 -11 8 1 10 -5 7 -16 -5
-17 -4 -16 10 1 8 10 22 16 30 13 9 -4 18 -2 21 3 4 6 -6 10 -22 11 l-28 1 25
8 c22 7 22 8 4 9 -11 1 -24 4 -28 9 -4 4 -17 7 -29 7 -16 0 -22 6 -21 23 1 12
-3 22 -8 22 -5 0 -8 -6 -7 -12 3 -26 -1 -39 -11 -33 -6 4 -8 15 -5 24 3 11 -2
24 -12 32 -15 11 -16 11 -5 -1z"/>
<path d="M2785 1590 c-3 -5 -2 -10 4 -10 5 0 13 5 16 10 3 6 2 10 -4 10 -5 0
-13 -4 -16 -10z"/>
<path d="M3134 1511 c8 -12 -31 -40 -41 -30 -6 6 -10 4 -10 -6 0 -8 8 -15 18
-15 9 0 19 -3 22 -7 2 -5 2 -3 1 4 -2 7 1 15 7 18 5 4 9 3 8 -2 -4 -22 2 -32
16 -27 8 4 15 1 15 -5 0 -6 -4 -11 -10 -11 -5 0 -10 -5 -10 -11 0 -5 5 -7 10
-4 6 3 10 0 10 -7 0 -9 3 -10 8 -2 4 6 18 15 31 19 16 5 20 10 13 17 -6 6 -8
18 -5 27 7 17 5 16 -17 -13 -12 -16 -12 -18 -1 -11 10 6 12 4 7 -4 -6 -9 -13
-8 -27 5 -10 9 -16 21 -12 27 3 5 1 7 -4 4 -6 -4 -13 0 -16 8 -4 9 -1 12 9 8
7 -3 14 -1 14 5 0 5 -9 12 -20 15 -11 3 -18 2 -16 -2z"/>
<path d="M3187 1483 c-4 -3 -7 -11 -7 -17 0 -6 5 -5 12 2 6 6 9 14 7 17 -3 3
-9 2 -12 -2z"/>
<path d="M3243 1453 c20 -5 23 -23 5 -23 -9 0 -8 -4 2 -11 11 -8 8 -9 -14 -4
-24 5 -27 3 -22 -10 3 -9 6 -22 6 -29 0 -7 7 -13 15 -13 8 0 15 7 15 14 0 8
-5 11 -12 7 -10 -5 -10 -4 0 7 10 11 16 11 34 0 26 -16 44 4 22 26 -8 8 -12
18 -9 23 5 8 -30 21 -50 19 -5 -1 -2 -3 8 -6z"/>
<path d="M3309 1390 c-22 -24 -23 -28 -7 -27 10 1 18 6 18 12 0 5 5 3 10 -5 8
-12 11 -13 19 -1 7 11 9 11 14 0 4 -11 6 -10 6 2 1 9 -7 23 -16 31 -17 15 -20
14 -44 -12z"/>
<path d="M3384 1349 c1 -22 7 -34 16 -34 8 0 21 -7 28 -15 11 -13 12 -12 4 5
-5 11 -8 30 -7 42 1 14 -3 19 -13 16 -8 -3 -18 0 -22 7 -5 7 -7 -1 -6 -21z"/>
<path d="M3294 1330 c1 -8 5 -18 11 -22 12 -9 37 11 29 23 -7 12 10 11 22 -1
7 -7 11 -6 11 4 0 11 -10 15 -37 13 -26 -1 -37 -7 -36 -17z m31 1 c3 -5 1 -12
-5 -16 -5 -3 -10 1 -10 9 0 18 6 21 15 7z"/>
<path d="M3671 1188 c-5 -13 -6 -25 -3 -28 2 -3 7 1 9 8 3 6 9 12 14 12 6 0 7
-5 3 -11 -3 -6 5 -3 20 6 14 9 23 21 20 26 -7 12 -34 11 -34 -1 0 -5 -5 -10
-11 -10 -5 0 -7 5 -4 10 3 6 4 10 0 10 -3 0 -9 -10 -14 -22z m59 8 c0 -2 -7
-7 -16 -10 -8 -3 -12 -2 -9 4 6 10 25 14 25 6z"/>
<path d="M3733 1173 c-13 -8 -23 -21 -23 -27 0 -6 4 -6 9 3 6 10 12 5 22 -17
7 -17 16 -27 19 -22 3 5 20 -4 37 -20 18 -17 35 -26 38 -20 3 6 1 10 -4 10 -6
0 -11 5 -11 10 0 6 9 10 21 10 14 0 19 -5 16 -15 -4 -8 -2 -17 4 -21 6 -3 8
-13 5 -23 -4 -9 3 -5 14 9 21 27 27 60 9 60 -5 0 -7 -6 -4 -12 4 -7 0 -4 -9 6
-8 10 -13 22 -11 26 2 4 -6 7 -18 6 -38 -3 -77 15 -77 35 0 23 -8 23 -37 2z
m25 -20 c2 -20 -1 -24 -9 -16 -7 7 -9 19 -6 27 9 23 12 20 15 -11z m42 -32
c16 -31 12 -37 -10 -13 -22 23 -25 32 -10 32 5 0 14 -9 20 -19z m57 -7 c-3 -3
-12 -4 -19 -1 -8 3 -5 6 6 6 11 1 17 -2 13 -5z"/>
<path d="M3620 1159 c0 -5 5 -7 10 -4 6 3 10 8 10 11 0 2 -4 4 -10 4 -5 0 -10
-5 -10 -11z"/>
</g>
</svg>
